<svg xmlns="http://www.w3.org/2000/svg" xml:space="preserve" width="128" height="128" data-id="lg_hWgPrIJKXIshdgyJRO" data-version="1" viewBox="0 0 128 128"><g data-padding="20"><g transform="translate(54.014 52.753)scale(.17828)"><rect width="586.268" height="146.9" x="-655.228" y="-447.674" fill="none" rx="0" ry="0" transform="matrix(.95 0 0 .95 400 400.066)"/><path fill="#1c70ec" d="M-142.387 55.687q.618.74 2.898 3.21 2.29 2.47 3.705 5.007 1.425 2.527 1.425 4.874 0 2.964-2.223 5.557-2.717 3.335-6.669 3.335-1.729 0-3.829-.494t-2.717-.618q-9.756-1.976-22.724-1.976-10.003 0-21.242.988-.988.123-2.84.247t-3.334.124q-4.446 0-7.106-1.416-2.65-1.425-2.65-5.254 0-2.223.864-4.75.864-2.536 2.593-6.118l1.112-2.593q1.852-4.57 4.075-6.973 2.223-2.413 6.3-2.413 3.333 0 5.243 2.166 1.92 2.156 1.92 5.367 0 2.223-1.113 4.446 7.78-.494 17.66-.494 5.805 0 8.77.124-11.363-14.326-16.92-21.613l-8.522-10.744q-1.976-2.47-3.334-3.829-4.57-5.31-6.916-9.072-2.347-3.772-2.347-7.724 0-3.705 2.65-5.985 2.66-2.289 6.3-3.458 3.647-1.178 9.205-2.289l5.187-1.112q9.756-2.47 20.13-4.446.865-.123 3.458-.617 4.2-1.112 7.41-1.112 4.076 0 6.175 2.223 2.223 2.347 2.223 4.817 0 2.346-1.425 4.693-1.415 2.346-4.503 6.175-3.705 4.446-4.693 6.545-1.605 3.458-3.4 5.805-1.787 2.346-4.01 2.346-1.605 0-3.21-1.235-1.73-1.358-1.73-3.705 0-1.729.798-3.638.808-1.919 1.606-3.525.807-1.605 1.054-1.976-6.298 1.112-18.648 4.323-1.483.494-6.052 1.605l14.82 17.043q19.02 21.613 24.576 28.158m41.496-43.225q0-2.593 3.211-4.446t6.67-1.852q2.1 0 3.334.807 1.235.798 1.112 2.527-.248 10.621-.495 32.11l-.617 32.234q-.124 2.717-3.4 4.693-3.269 1.976-6.727 1.976-2.223 0-3.525-.922-1.292-.93-1.292-2.783l.494-20.254q-.494.123-1.482.123l-2.47-.123q-.864-.124-2.593-.124-.865 0-2.1.247-.617 12.35-1.729 20.995-.247 2.594-3.77 4.57-3.516 1.976-6.974 1.976-2.1 0-3.278-.865-1.168-.864-1.045-2.593 1.853-17.043 2.347-31.122l.123-3.705q.371-10.745.371-14.203 0-11.115-1.359-13.708-1.976.123-3.03-.675-1.045-.807-1.045-2.042t.988-2.594 2.47-2.223q4.693-2.593 8.027-2.593 2.717 0 4.817 1.73 3.211 2.716 3.211 11.361l-.124 6.175q.371 6.298.371 12.72l-.124 7.287q.741-.247 2.347 0t2.47.247 1.976-.18q1.111-.19 1.976-.314ZM-42.599 52.6q2.841-6.669 2.841-13.709 0-5.557-1.919-10.184-1.91-4.636-5.985-7.6-2.717-1.976-5.187-1.976-.988 0-2.47.494 1.111.494 1.111 1.73 0 .74-.494 1.728-2.84 5.434-4.446 11.8-1.605 6.355-1.605 12.777 0 7.41 2.223 14.08 1.482 3.704 3.087 5.803.741.865 1.482 1.235 3.582-2.47 6.48-6.916 2.906-4.446 4.882-9.262m-1.729-43.35q6.052 1.235 10.374 5.311t6.546 9.823q2.223 5.738 2.223 11.913 0 7.286-2.84 14.943t-7.78 14.08q-4.94 6.421-10.993 10.126-5.68 3.458-11.115 3.458-5.434 0-9.509-3.334t-5.928-9.633q-2.1-6.422-2.1-14.45 0-4.816.741-9.386-.864.247-2.593.247-4.199 0-4.199-2.84 0-.988.247-1.606 4.2-11.732 12.654-20.434 8.464-8.712 19.456-8.712 1.605 0 4.816.494m60.382 34.21q1.852-4.693 1.852-9.016 0-5.68-3.21-9.262-4.817-5.68-16.179-5.434-2.223 19.513-3.458 47.053 7.04-3.705 12.597-9.813 5.557-6.118 8.398-13.528M-.248 10.115q1.358-.124 4.2-.124 15.066 0 22.476 7.41 5.557 5.434 5.557 13.956 0 4.446-1.976 10.621-4.075 11.61-13.585 20.814-9.509 9.196-21.736 14.013-.494 12.597-.74 22.05-.248 9.442-.37 15.741-.124 15.067-.742 30.257-.123 2.594-3.705 4.57t-7.286 1.976q-4.323 0-4.323-3.21l.124-9.88q.123-4.818.427-23.219.314-18.402 1.055-34.333-3.335.37-6.546.37-2.347 0-3.524-.74-1.169-.742-1.169-1.977 0-2.223 3.021-4.693 3.03-2.47 6.118-2.47 1.73 0 2.47-.123 1.36-26.553 4.2-51.006-.865-.494-.865-1.605 0-1.482 1.605-3.458 0-.74.247-2.47.37-2.594 3.952-4.503 3.582-1.919 6.916-1.919 2.1 0 3.268.864Q0 7.892-.248 9.621ZM83.62 25.06q-2.347-1.976-8.094-5.244-5.738-3.278-8.826-3.278-2.47 0-2.47 2.47 0 .865.617 2.964.865 2.84 3.83 5.377 2.963 2.527 7.78 5.862 3.952 2.717 5.063 3.705 5.434 4.693 8.645 7.847 3.211 3.144 5.861 7.41 2.66 4.256 2.66 8.702 0 2.964-1.48 6.175-2.842 5.804-9.33 8.892-6.48 3.087-13.766 3.087-2.47 0-4.94-.37-16.796-2.84-30.998-22.354-.74-1.11-.74-2.223 0-2.717 3.637-4.997 3.648-2.29 7.23-2.29 2.717 0 3.952 1.606 7.657 10.374 15.067 15.19 6.792 4.446 11.485 4.446 3.83 0 3.83-3.334 0-2.346-1.854-5.804-1.852-3.335-4.816-6.299t-7.534-6.792l-3.334-2.84q-.494-.495-4.57-3.582-3.334-2.47-5.68-4.57t-3.953-4.57q-2.1-3.334-2.1-6.916 0-5.557 4.75-10.184 4.76-4.636 10.935-6.365 3.952-1.11 7.534-1.11 6.67 0 12.9 3.086 6.242 3.088 12.664 8.522 1.112.864 1.112 2.1 0 2.346-3.829 4.57-3.828 2.222-7.533 2.222-2.47 0-3.705-1.112m46.56-12.597q0-2.593 3.21-4.446t6.67-1.852q2.1 0 3.333.807 1.235.798 1.112 2.527-.247 10.621-.494 32.11l-.618 32.234q-.123 2.717-3.4 4.693-3.269 1.976-6.727 1.976-2.223 0-3.524-.922-1.292-.93-1.292-2.783l.494-20.254q-.494.123-1.482.123l-2.47-.123q-.865-.124-2.594-.124-.864 0-2.099.247-.618 12.35-1.729 20.995-.247 2.594-3.772 4.57-3.515 1.976-6.973 1.976-2.099 0-3.277-.865-1.169-.864-1.045-2.593 1.852-17.043 2.346-31.122l.124-3.705q.37-10.745.37-14.203 0-11.115-1.358-13.708-1.976.123-3.03-.675-1.046-.807-1.046-2.042t.988-2.594 2.47-2.223q4.693-2.593 8.028-2.593 2.717 0 4.816 1.73 3.211 2.716 3.211 11.361l-.123 6.175q.37 6.298.37 12.72l-.123 7.287q.741-.247 2.346 0 1.606.247 2.47.247t1.976-.18q1.112-.19 1.976-.314Zm49.523 20.502-3.335 8.521-.988 2.47 8.645 7.287-.865-3.582q-.864-3.458-3.458-14.696m10.745-27.54q1.73 10.744 4.38 21.802 2.66 11.048 6.488 25.374 3.581 13.585 4.693 18.031.124.37.124 1.112 0 2.964-3.335 5.13-3.334 2.156-6.916 2.156-2.964 0-4.57-1.605-3.58-3.829-7.533-7.287t-10.374-8.52l-4.076-3.336q-5.187 11.115-8.027 16.426-.865 1.852-4.513 3.4-3.638 1.54-6.726 1.54-3.458 0-3.458-2.223 0-.618.371-1.482 3.705-9.14 8.768-20.996l2.594-6.298-3.088-3.088q-.864-.864-.864-1.976 0-2.099 2.717-4.009 2.717-1.919 6.051-2.536 5.928-14.202 11.115-28.899.494-1.729 3.145-3.02 2.66-1.302 5.624-1.673 2.1-.618 3.581-.618 3.458 0 3.83 2.594m59.773 23.712q.494-2.47 3.762-4.199 3.277-1.729 6.488-1.729 4.2 0 3.705 3.211l-.494 2.84q-1.852 10.498-3.77 17.728-1.91 7.22-5.805 14.012-3.886 6.793-10.184 10.745-8.15 5.187-16.673 5.187-5.063 0-9.452-2.1-4.38-2.1-7.344-6.545-5.187-7.657-5.187-17.537 0-13.338 9.51-30.875 3.21-6.052 6.726-9.633 3.524-3.582 8.835-4.323.494-.123 1.358-.123 1.976 0 3.458.74 3.705-8.15 5.681-12.226.865-1.852 4.133-3.21 3.277-1.359 6.118-1.359 3.705 0 3.705 2.346 0 .494-.37 1.482-8.522 20.748-13.833 32.234-.864 1.976-4.018 3.334-3.145 1.36-6.109 1.36-1.976 0-3.21-.619-1.236-.617-1.236-1.976 0-.864.494-1.852l1.853-4.2q-.618-.123-1.112-.617l-2.47 5.805q-3.458 7.533-4.57 15.067-.37 2.346-.37 4.816 0 5.31 1.606 10.004 1.605 4.693 5.063 7.533 2.84 2.47 5.558 2.47 10.868 0 18.154-37.79m66.195 19.142.37 2.593q2.1 15.438 3.088 21.613.494 3.087-2.717 5.434t-6.792 2.346q-2.1 0-3.458-.92-1.359-.932-1.606-2.908l-.988-8.028q-1.729-13.585-2.84-20.377-.618-3.952-1.73-6.603-1.11-2.66-3.58-4.018-1.607-.74-3.706-.74-2.594 0-5.805.863-2.223 18.525-7.286 37.915-.618 2.593-4.389 4.512-3.762 1.91-7.22 1.91-2.223 0-3.335-.798-1.11-.808-.617-2.537 5.434-19.513 7.78-39.026-2.47 0-4.322-.92-1.853-.932-1.853-2.414 0-1.73 2.47-3.458l4.817-3.458q.988-10.992.988-24.947 0-7.904-.37-15.808-.124-2.47 3.21-4.446t6.916-1.976q1.976 0 3.268.807 1.302.798 1.425 2.527.494 8.398.494 18.65 0 8.891-.247 13.213 4.446-3.952 8.645-8.274l3.705-3.582q1.73-1.605 3.952-2.65 2.223-1.055 4.446-1.055 1.36 0 2.965.684 1.605.675 1.605 1.91 0 .74-.494 1.358-7.533 10.621-21.983 21.86 4.076-.865 7.287-.865 9.015 0 13.461 5.928 1.976 2.593 2.774 5.624.808 3.021 1.178 5.985t.494 4.076"/></g><path fill="transparent" stroke="transparent" stroke-width=".185" d="M12.5 47.635h103v32.73h-103z"/></g></svg>